<svg width="212" height="211" viewBox="0 0 212 211" fill="none" xmlns="http://www.w3.org/2000/svg">
<path fill-rule="evenodd" clip-rule="evenodd" d="M35.1751 140.109C16.0426 120.977 16.0426 89.9569 35.1751 70.8244L106 -2.92282e-05L116.007 10.0076C110.905 15.1096 110.905 23.3815 116.007 28.4835C121.109 33.5855 129.381 33.5852 134.483 28.4832L144.491 38.4915L81.5409 101.442L45.8363 73.7859L77.5158 105.465L39.0243 143.958L35.1751 140.109Z" fill="white"/>
<path fill-rule="evenodd" clip-rule="evenodd" d="M77.5141 182.449L35.1751 140.11C16.0427 120.978 16.0427 89.9578 35.1751 70.8254L39.0243 66.9762L116.072 144.024C115.908 144.102 115.755 144.209 115.619 144.344L113.714 146.25C113.076 146.888 113.076 147.922 113.714 148.559C114.351 149.197 115.385 149.197 116.023 148.559L117.928 146.654C118.064 146.518 118.171 146.365 118.249 146.201L144.491 172.443L134.483 182.452L134.481 182.45C129.379 177.348 121.107 177.348 116.005 182.45C110.903 187.552 110.903 195.824 116.005 200.926L116.007 200.927L106 210.935L79.8236 184.759L81.7271 182.855C82.3649 182.217 82.3649 181.183 81.7271 180.546C81.0894 179.908 80.0554 179.908 79.4176 180.546L77.5141 182.449ZM83.2283 176.735C82.5905 177.373 82.5905 178.407 83.2283 179.045C83.866 179.682 84.9 179.682 85.5378 179.045L89.3484 175.234C89.9862 174.596 89.9862 173.562 89.3484 172.924C88.7107 172.287 87.6767 172.287 87.0389 172.924L83.2283 176.735ZM90.8496 169.114C90.2119 169.751 90.2119 170.785 90.8496 171.423C91.4873 172.061 92.5213 172.061 93.1591 171.423L96.9698 167.613C97.6075 166.975 97.6075 165.941 96.9698 165.303C96.332 164.665 95.298 164.665 94.6603 165.303L90.8496 169.114ZM98.4709 161.492C97.8332 162.13 97.8332 163.164 98.4709 163.802C99.1087 164.44 100.143 164.44 100.78 163.802L104.591 159.991C105.229 159.354 105.229 158.32 104.591 157.682C103.953 157.044 102.919 157.044 102.282 157.682L98.4709 161.492ZM106.092 153.871C105.455 154.509 105.455 155.543 106.092 156.181C106.73 156.818 107.764 156.818 108.402 156.181L112.212 152.37C112.85 151.732 112.85 150.698 112.212 150.06C111.575 149.423 110.541 149.423 109.903 150.06L106.092 153.871Z" fill="white"/>
</svg>
